<!-- <svg xmlns="http://www.w3.org/2000/svg" fill="none" viewBox="0 0 128 128">
    <path d="M50.4 78.5a75.1 75.1 0 0 0-28.5 6.9l24.2-65.7c.7-2 1.9-3.2 3.4-3.2h29c1.5 0 2.7 1.2 3.4 3.2l24.2 65.7s-11.6-7-28.5-7L67 45.5c-.4-1.7-1.6-2.8-2.9-2.8-1.3 0-2.5 1.1-2.9 2.7L50.4 78.5Zm-1.1 28.2Zm-4.2-20.2c-2 6.6-.6 15.8 4.2 20.2a17.5 17.5 0 0 1 .2-.7 5.5 5.5 0 0 1 5.7-4.5c2.8.1 4.3 1.5 4.7 4.7.2 1.1.2 2.3.2 3.5v.4c0 2.7.7 5.2 2.2 7.4a13 13 0 0 0 5.7 4.9v-.3l-.2-.3c-1.8-5.6-.5-9.5 4.4-12.8l1.5-1a73 73 0 0 0 3.2-2.2 16 16 0 0 0 6.8-11.4c.3-2 .1-4-.6-6l-.8.6-1.6 1a37 37 0 0 1-22.4 2.7c-5-.7-9.7-2-13.2-6.2Z" />
    <style>
        path { fill: #000; }
        @media (prefers-color-scheme: dark) {
            path { fill: #FFF; }
        }
    </style>
</svg> -->

<!-- <svg xmlns="http://www.w3.org/2000/svg" viewBox="0 0 544 544" xml:space="preserve" fill="#812ae4" ><path d="M450.616 343.334c-22.053-29.464-44.314-58.32-67.164-86.713-3.125-3.883-3.359-6.322.17-10.1 28.505-30.527 56.82-61.23 85.177-91.896 11.408-12.336 22.8-24.688 34.125-37.1 1.332-1.459 2.48-2.091 4.496-.773-1.078 3.103-.02 5.992 1.224 8.921 1.855 4.366 1.132 8.514-2.9 11.06-11.216 7.086-15.213 19.88-23.596 29.22-7.31 8.144-13.06 17.658-21.324 25.025-2.685 2.393-3.78 5.86-5.851 8.656-5.642 7.612-11.373 15.118-18.296 21.703-3.45 3.281-6.467 7.269-8.768 11.44-3.071 5.567-8.373 8.905-12.126 13.673-9.21 11.704-9.404 19.635-.647 31.49 4.021 5.443 8.137 10.856 12.217 16.25 2.573 3.4 3.894 7.787 6.998 11.16 4.944 5.369 8.538 12.382 13.78 16.9 7.67 6.612 10.627 15.62 16.103 23.24 1.908 2.655 4.414 4.87 6.514 7.398 4.32 5.203 8.488 10.458 13.303 15.317 5.084 5.132 10.398 10.355 13.624 17.377 1.995 4.342 5.432 8.21 8.148 12.353 5.53 8.437 7.706 18.637 14.386 26.388.422.49.716 1.147.896 1.777.571 1.994 2.421 4.1.591 6.054-1.656 1.769-4.088 2.023-6.519 1.64-5.861-.926-11.435-3.09-17.524-3.25-3.942-.104-7.906.297-11.908-.353-4.131-.67-7.697-2.203-10.847-4.693-13.42-10.611-23.954-23.867-34.345-37.312-8.925-11.55-18.471-22.616-27.608-34.005-9.985-12.444-19.784-25.037-29.733-37.51-2.48-3.108-5.226-6.006-8.23-9.434-8.382 2.747-17.144 5.327-25.673 8.53-4.72 1.774-7.172 5.149-8.789 10.754-3.608 12.511-1.307 24.797-1.361 37.188-.055 12.45-.411 24.898-.656 37.347a1647 1647 0 0 1-.41 16.412c-.21 7.036-1.524 8.716-8.165 10.541-6.887 1.892-13.668 4.24-20.986 3.981-5.988-.212-10.57-2.611-13.423-7.96-1.718-3.221-4.681-4.992-7.897-6.512l.118-1.395c5.076-.41 10.146-.928 15.23-1.195 3.82-.2 7.665-.23 11.487-.058 4.797.215 6.33-1.952 6.309-6.62-.142-30.324.011-60.65-.176-90.975-.028-4.594 1.386-7.69 4.817-10.732 9.091-8.059 17.873-16.47 25.477-26.018 3.291-4.132 5.437-4.226 8.687-.009 7.62 9.886 14.865 20.06 22.558 29.886 14.052 17.95 28.462 35.62 42.451 53.618 11.74 15.105 24.004 29.769 36.176 44.517 3.94 4.775 8.713 7.023 14.684 7.076 8.164.073 16.328.044 24.493.025 1.652-.003 3.523.125 4.37-1.693.782-1.678-.655-2.813-1.542-3.94-11.014-13.983-22.103-27.907-33.089-41.911-6.354-8.101-12.557-16.32-19.056-24.76m-194.604-99.352c9.994-26.67 12.232-53.502 4.172-80.596-3.315-11.142-10.076-20.56-19.16-28.1-1.21-1.005-3.039-1.575-3.112-3.892 2.053-.633 3.353.624 4.675 1.79 4.237 3.732 8.362 7.526 11.987 11.927 4.175 5.07 9.28 9.326 13.904 13.996 6.589 6.656 10.209 13.806 10.12 23.222-.046 4.937 1.29 9.88 1.9 14.833 2.176 17.644.464 34.657-6.77 51.193-4.15 9.486-10.754 16.865-17.31 24.454-.108.126-.236.246-.307.392-5.49 11.343-16.779 15.488-26.555 21.57-3.916 2.437-8.394 3.047-12.576 4.331-10.88 3.339-22.057 5.649-33.022 8.805-12.138 3.493-24.613 5.218-37.398 4.601-6.374-.307-13.05 1.87-19.16.042-5.027-1.503-9.451-.539-14.179-.035-4.143.442-6.27 2.664-6.71 6.702-.109.993-.374 1.981-.375 2.972-.01 9.804-.71 19.68.24 29.392 1.031 10.54-.556 20.903-.463 31.357.112 12.595-.757 25.197-1.116 37.798-.15 5.283-2.155 8.386-7.028 8.62-7.128.34-14.076 2.193-21.28 1.934-5.189-.187-9.486-1.674-12.616-5.849-1.56-2.08-3.392-3.555-5.904-4.32-1.667-.508-4.073-.868-3.474-3.363.473-1.974 2.457-2.477 4.432-2.498 8.15-.087 16.311-.499 24.447-.206 4.936.178 7.076-1.614 7.076-6.411 0-13.31.407-26.632-.018-39.927-.718-22.485-.093-44.967-.413-67.448-.06-4.203 2.42-5.913 6.356-5.985 9.323-.17 18.648-.538 27.97-.484 17.818.105 35.682.057 53.372-1.67 19.503-1.905 38.312-7.045 54.513-18.988 10.567-7.79 18.033-18.066 23.782-30.159"/><path d="M225.754 176.21c-3.337-8.663-10.93-9.98-18.825-12.056-12.59-3.309-25.265-5.622-38.183-5.49-11.428.116-23.12-1.637-34.238 1.102-7.627 1.879-15.022 2.927-22.785 2.863-3.294-.027-4.805 1.539-5.605 5.752-1.916 10.087 1.6 19.785.679 29.594-1.187 12.635 1.48 25.226.039 37.78-.668 5.813.709 11.425.379 17.235-.487 8.579-7.696 14.002-15.442 10.36-1.883-.885-1.897-2.52-1.895-4.225.041-35.965.058-71.93.13-107.895.012-5.444 2.771-7.511 9.382-7.44 7.968.087 15.959-.228 23.9.262 19.455 1.202 38.948-.443 58.362.778 14.574.917 28.188 5.11 37.98 17.097 3.153 3.861 6.05 7.943 6.48 13.627-.137.478-.358.656-.358.656m144.112 35.757c2.805-2.652 4.346-6.437 9.193-6.581-.624 3.118-2.764 4.77-4.484 6.59-14.637 15.482-28.995 31.217-43.033 47.243a45 45 0 0 1-3.488 3.575c-1.445 1.318-2.827 3.14-5.16 2.088-2.46-1.11-3.05-3.289-2.955-5.812 1.416-37.283.395-74.581.662-111.872.064-8.982-.395-17.97-.749-26.95-.095-2.407-.03-4.627 1.752-6.63 11.63 5.191 17.967 13.582 17.482 26.825a609 609 0 0 0-.272 35.876c.232 10.394.17 20.868 2.875 31.058 1.628 6.135 9.797 10.639 15.921 9.228 4.224-.973 8.578-1.308 12.256-4.638m14.409-60.648c2.41-1.951 4.697-2.737 7.072-.86 2.427 1.917 1.195 4.171.296 6.325-.83 1.989-1.6 4.011-2.562 5.937-.942 1.886-2.386 3.333-4.724 2.858-2.582-.523-3.23-2.589-3.39-4.884-.24-3.453.402-6.622 3.308-9.376"/><path d="M226.085 175.942c4.649 9.915 5.25 20.357 3.364 31.078-1.639-9.958-.776-20.229-3.621-30.427-.074-.383.147-.561.257-.651"/></svg> -->

<!-- License: Apache. Made by Carbon Design: https://github.com/carbon-design-system/carbon -->
<svg width="32px" height="32px" viewBox="0 0 32 32" id="icon" xmlns="http://www.w3.org/2000/svg" fill="#812ae4"><defs><style>.cls-1{fill:none;}</style></defs><title>research--matrix</title><polygon points="18 13 18 4 16 4 16 6 13 6 13 8 16 8 16 13 13 13 13 15 21 15 21 13 18 13"/><path d="M16.5,20A3.5,3.5,0,1,1,13,23.5,3.5,3.5,0,0,1,16.5,20m0-2A5.5,5.5,0,1,0,22,23.5,5.5,5.5,0,0,0,16.5,18Z"/><polygon points="8 30 2 30 2 2 8 2 8 4 4 4 4 28 8 28 8 30"/><polygon points="30 30 24 30 24 28 28 28 28 4 24 4 24 2 30 2 30 30"/><rect id="_Transparent_Rectangle_" data-name="&lt;Transparent Rectangle&gt;" class="cls-1" width="32" height="32"/></svg>